Coordinates
version=1
nRows=11
nColumns=63
inDegrees=yes

Units are S.I. units (second, meters, Newtons, ...)
If the header above contains a line with 'inDegrees', this indicates whether rotational values are in degrees (yes) or radians (no).

endheader
time	pelvis_tilt	pelvis_list	pelvis_rotation	pelvis_tx	pelvis_ty	pelvis_tz	hip_flexion_r	hip_adduction_r	hip_rotation_r	knee_angle_r	knee_angle_r_beta	ankle_angle_r	subtalar_angle_r	mtp_angle_r	hip_flexion_l	hip_adduction_l	hip_rotation_l	knee_angle_l	knee_angle_l_beta	ankle_angle_l	subtalar_angle_l	mtp_angle_l	L5_S1_Flex_Ext	L5_S1_Lat_Bending	L5_S1_axial_rotation	L4_L5_Flex_Ext	L4_L5_Lat_Bending	L4_L5_axial_rotation	L3_L4_Flex_Ext	L3_L4_Lat_Bending	L3_L4_axial_rotation	L2_L3_Flex_Ext	L2_L3_Lat_Bending	L2_L3_axial_rotation	L1_L2_Flex_Ext	L1_L2_Lat_Bending	L1_L2_axial_rotation	L1_T12_Flex_Ext	L1_T12_Lat_Bending	L1_T12_axial_rotation	Abs_r3	Abs_r2	Abs_r1	Abs_t1	Abs_t2	neck_flexion	neck_bending	neck_rotation	arm_flex_r	arm_add_r	arm_rot_r	elbow_flex_r	pro_sup_r	wrist_flex_r	wrist_dev_r	arm_flex_l	arm_add_l	arm_rot_l	elbow_flex_l	pro_sup_l	wrist_flex_l	wrist_dev_l
      4.33300000	    -43.36717468	      0.45251499	     -3.31540688	     -0.23953507	      1.04030944	     -0.01209634	     96.92494895	     -5.03250874	      2.11597092	    106.14064287	      1.85250369	      6.30675324	     -1.02610054	      0.00000000	     95.14211140	     -8.03879995	     -2.85767797	     64.21488786	      1.12076122	      9.06818602	      4.06171273	      0.00000000	     -0.04829897	      0.08067836	      0.25058050	     -0.08969601	      0.10730221	      0.26624178	     -0.07935037	      0.19616135	      0.26624178	     -0.05520089	      0.19616135	      0.21925794	     -0.04485042	      0.16451930	      0.20359666	     -0.02759803	      0.12497077	      0.18793538	     -0.34499469	      0.91264969	      1.39365357	      0.00000000	      0.00000000	     -0.00000000	      0.00000000	      0.00000000	     76.61832070	    -10.39611366	     30.53503265	     31.20635230	     33.31734974	      0.00000000	      5.00002105	     74.70986826	     -9.75968635	     22.03974543	     31.16996140	     40.14150507	      0.00000000	      5.00002105
      4.34200000	    -43.40944336	      0.31369804	     -3.71026792	     -0.23960339	      1.04067023	     -0.01149349	     98.29479676	     -4.77346891	      2.02395658	    108.02012146	      1.88530678	      7.05113074	     -1.07027729	      0.00000000	     93.72827732	     -8.48702963	     -3.14649740	     62.18467761	      1.08532737	      8.24093744	      4.01561149	      0.00000000	     -0.04881134	      0.11195427	      0.31450669	     -0.09064754	      0.14889918	      0.33416336	     -0.08019215	      0.27220561	      0.33416336	     -0.05578648	      0.27220561	      0.27519335	     -0.04532621	      0.22829714	      0.25553669	     -0.02789080	      0.17341716	      0.23588002	     -0.34865452	      1.26644906	      1.74919187	      0.00000000	      0.00000000	     -0.00000000	      0.00000000	      0.00000000	     76.70275749	    -10.33407605	     30.62488328	     31.24616975	     33.32606067	      0.00000000	      5.00002088	     74.60317722	     -9.89418703	     21.99305871	     31.21024633	     40.13151555	      0.00000000	      5.00002088
      4.35000000	    -43.40690602	      0.95802474	     -3.64485136	     -0.23967016	      1.04090788	     -0.01079275	     99.87172795	     -4.89098874	      2.79954573	    110.04551186	      1.92065651	      8.39808674	     -0.67979816	      0.00000000	     92.06214320	     -8.49987043	     -4.45375309	     60.07165000	      1.04844808	      7.22972373	      3.51419068	      0.00000000	     -0.04837099	      0.02660090	      0.27220771	     -0.08982976	      0.03537919	      0.28922069	     -0.07946869	      0.06467742	      0.28922069	     -0.05528320	      0.06467742	      0.23818175	     -0.04491730	      0.05424455	      0.22116876	     -0.02763918	      0.04120479	      0.20415578	     -0.34550911	      0.30091465	      1.51393762	      0.00000000	      0.00000000	     -0.00000000	      0.00000000	      0.00000000	     76.65324626	    -10.16802132	     30.95974992	     31.27212075	     33.35437549	      0.00000000	      5.00002021	     74.63698060	    -10.22738971	     21.87098207	     31.37983939	     40.10327015	      0.00000000	      5.00002021
      4.35800000	    -43.47142314	      0.87736005	     -4.03491240	     -0.23990471	      1.04131855	     -0.01002935	    101.29593030	     -4.60163063	      2.67204097	    111.64834751	      1.94863127	      9.23703261	     -0.73635935	      0.00000000	     90.64328939	     -8.86902528	     -4.64141011	     58.14804743	      1.01487488	      6.48985149	      3.58021619	      0.00000000	     -0.04945396	      0.04522383	      0.33383411	     -0.09184096	      0.06014770	      0.35469874	     -0.08124792	      0.10995722	      0.35469874	     -0.05652094	      0.10995722	      0.29210485	     -0.04592295	      0.09222044	      0.27124021	     -0.02825800	      0.07005171	      0.25037558	     -0.35324472	      0.51158102	      1.85668517	      0.00000000	      0.00000000	     -0.00000000	      0.00000000	      0.00000000	     76.73914685	    -10.13374968	     31.02822101	     31.29696940	     33.35957396	      0.00000000	      5.00002004	     74.57535953	    -10.36505492	     21.86349615	     31.45817514	     40.10080519	      0.00000000	      5.00002004
      4.36700000	    -43.48852174	      1.46108664	     -4.07135723	     -0.24009944	      1.04152282	     -0.00907980	    102.86260957	     -4.54205766	      3.26704764	    113.32012270	      1.97780925	     10.67794830	     -0.49704358	      0.00000000	     89.02988102	     -8.88550787	     -5.67915421	     56.19461422	      0.98078104	      5.67977111	      3.55443298	      0.00000000	     -0.04875033	     -0.03666132	      0.31631461	     -0.09053423	     -0.04875956	      0.33608427	     -0.08009191	     -0.08913833	      0.33608427	     -0.05571675	     -0.08913833	      0.27677528	     -0.04526955	     -0.07475976	      0.25700562	     -0.02785594	     -0.05678838	      0.23723596	     -0.34821872	     -0.41472019	      1.75924695	      0.00000000	      0.00000000	     -0.00000000	      0.00000000	      0.00000000	     76.69158330	    -10.02109054	     31.25513444	     31.31897812	     33.37476385	      0.00000000	      5.00001952	     74.65793392	    -10.67046148	     21.88838705	     31.69989397	     40.10137459	      0.00000000	      5.00001952
      4.37500000	    -43.53260041	      1.77190489	     -4.30798109	     -0.24032959	      1.04172957	     -0.00799624	    104.38800616	     -4.30255908	      3.55269059	    114.74957090	      2.00275783	     11.85287907	     -0.06381419	      0.00000000	     87.55624529	     -9.06898899	     -6.28804649	     54.42760486	      0.94994091	      4.91360057	      3.59049745	      0.00000000	     -0.04699676	     -0.08170128	      0.34797255	     -0.08727768	     -0.10866271	      0.36972083	     -0.07721098	     -0.19864850	      0.36972083	     -0.05371260	     -0.19864850	      0.30447598	     -0.04364119	     -0.16660526	      0.28272769	     -0.02685395	     -0.12655529	      0.26097941	     -0.33569315	     -0.92422125	      1.93531891	      0.00000000	      0.00000000	     -0.00000000	      0.00000000	      0.00000000	     76.68887690	     -9.95729356	     31.29313428	     31.30519656	     33.35037966	      0.00000000	      5.00001884	     74.72074720	    -10.87291956	     22.12885692	     31.84350978	     40.13636729	      0.00000000	      5.00001884
      4.38300000	    -43.59083091	      1.64571375	     -4.70303339	     -0.24056420	      1.04188900	     -0.00695186	    105.78035798	     -3.94910574	      3.27044148	    115.89891823	      2.02281772	     12.61007863	     -0.15422117	      0.00000000	     86.24835058	     -9.38349568	     -6.18791102	     52.85158453	      0.92243417	      4.24379148	      3.72829905	      0.00000000	     -0.04681982	     -0.06672949	      0.42270487	     -0.08694909	     -0.08875022	      0.44912392	     -0.07692028	     -0.16224608	      0.44912392	     -0.05351037	     -0.16224608	      0.36986676	     -0.04347689	     -0.13607478	      0.34344770	     -0.02675285	     -0.10336398	      0.31702865	     -0.33442930	     -0.75485734	      2.35095765	      0.00000000	      0.00000000	     -0.00000000	      0.00000000	      0.00000000	     76.77812449	     -9.99841698	     31.28824038	     31.25600558	     33.34450843	      0.00000000	      5.00001871	     74.70955655	    -10.89469255	     22.17737765	     31.97030120	     40.14343411	      0.00000000	      5.00001871
      4.39200000	    -43.64586709	      1.69582097	     -5.02767248	     -0.24082683	      1.04202592	     -0.00575209	    107.18512991	     -3.62087387	      3.10692036	    116.89431440	      2.04019066	     13.60222197	     -0.27137769	      0.00000000	     84.91193534	     -9.61479682	     -6.24692611	     51.30352148	      0.89541537	      3.57939979	      3.82629435	      0.00000000	     -0.04881310	     -0.08007866	      0.48852554	     -0.09065081	     -0.10650461	      0.51905839	     -0.08019505	     -0.19470325	      0.51905839	     -0.05578849	     -0.19470325	      0.42745985	     -0.04532785	     -0.16329640	      0.39692700	     -0.02789181	     -0.12404184	      0.36639416	     -0.34866711	     -0.90586579	      2.71703251	      0.00000000	      0.00000000	     -0.00000000	      0.00000000	      0.00000000	     76.83823624	    -10.03740469	     31.30958622	     31.20018928	     33.34960857	      0.00000000	      5.00001851	     74.73138547	    -10.94121875	     22.20494044	     32.17844516	     40.15021762	      0.00000000	      5.00001851
      4.40000000	    -43.68701994	      1.75792594	     -5.32384230	     -0.24097880	      1.04203786	     -0.00447003	    108.54028600	     -3.26849403	      2.98913047	    117.73965986	      2.05494472	     14.58177943	     -0.33205618	      0.00000000	     83.62959277	     -9.84437323	     -6.36049024	     49.94190468	      0.87165067	      3.01041850	      3.81217023	      0.00000000	     -0.04878413	     -0.09681134	      0.55222357	     -0.09059701	     -0.12875908	      0.58673754	     -0.08014745	     -0.23538708	      0.58673754	     -0.05575538	     -0.23538708	      0.48319562	     -0.04530095	     -0.19741768	      0.44868165	     -0.02787525	     -0.14996076	      0.41416768	     -0.34846018	     -1.09514919	      3.07130182	      0.00000000	      0.00000000	     -0.00000000	      0.00000000	      0.00000000	     76.86168832	    -10.08631492	     31.32154866	     31.13137658	     33.35382636	      0.00000000	      5.00001831	     74.74987976	    -10.96636566	     22.22215263	     32.38143164	     40.15537206	      0.00000000	      5.00001831
      4.40800000	    -43.69045380	      2.03714615	     -5.62210712	     -0.24101718	      1.04190194	     -0.00300224	    109.85359255	     -2.80006055	      3.16272608	    118.44071533	      2.06718045	     15.89524604	     -0.07820182	      0.00000000	     82.34397660	    -10.08459995	     -6.87156883	     48.78074740	      0.85138465	      2.52296702	      3.40560692	      0.00000000	     -0.04790565	     -0.14552795	      0.61154491	     -0.08896559	     -0.19355217	      0.64976647	     -0.07870420	     -0.35383665	      0.64976647	     -0.05475137	     -0.35383665	      0.53510180	     -0.04448519	     -0.29676059	      0.49688024	     -0.02737329	     -0.22542279	      0.45865868	     -0.34218530	     -1.64624123	      3.40122933	      0.00000000	      0.00000000	     -0.00000000	      0.00000000	      0.00000000	     76.80733142	    -10.09413195	     31.29205323	     31.09534040	     33.33494570	      0.00000000	      5.00001784	     74.79987450	    -11.01692158	     22.23444237	     32.59369978	     40.15522751	      0.00000000	      5.00001784
      4.41700000	    -43.74188539	      1.86812489	     -5.92125127	     -0.24113274	      1.04177951	     -0.00187285	    111.07761426	     -2.51193508	      2.78596876	    118.85374197	      2.07438913	     16.54192985	     -0.04422874	      0.00000000	     81.26970206	    -10.38390383	     -6.77106901	     47.79901413	      0.83425018	      2.19229616	      3.23612698	      0.00000000	     -0.04678920	     -0.12877594	      0.68397364	     -0.08689222	     -0.17127200	      0.72672199	     -0.07686997	     -0.31310581	      0.72672199	     -0.05347537	     -0.31310581	      0.59847694	     -0.04344845	     -0.26259989	      0.55572858	     -0.02673535	     -0.19947393	      0.51298023	     -0.33421055	     -1.45673916	      3.80405620	      0.00000000	      0.00000000	     -0.00000000	      0.00000000	      0.00000000	     76.86151481	    -10.19036303	     31.24087686	     31.02946597	     33.33115857	      0.00000000	      5.00001769	     74.78328301	    -10.97427028	     22.23948675	     32.68055605	     40.15830422	      0.00000000	      5.00001769
